<svg width="24" height="24" viewBox="0 0 24 24" fill="none" xmlns="http://www.w3.org/2000/svg">
<path d="M12.7814 24C6.529 24.004 1.40092 19.9464 0.236981 14.3045C-1.04354 8.09616 2.9873 1.95312 9.38207 0.374581C10.3603 0.132536 11.3657 0.00674886 12.3757 3.34312e-05C12.9935 -0.00401261 13.4261 0.359553 13.4423 0.897099C13.4586 1.43464 13.0259 1.83289 12.3974 1.84561C7.74942 1.9404 3.84057 4.71252 2.42545 8.91867C0.495967 14.6536 4.31648 20.888 10.4547 21.9614C14.0733 22.5937 17.2388 21.6695 19.9008 19.2141C20.2079 18.9309 20.539 18.7794 20.9548 18.8927C21.662 19.0852 21.8766 19.9251 21.349 20.4435C20.3194 21.4559 19.1076 22.2806 17.7724 22.8775C16.0989 23.6301 14.3359 23.9948 12.7814 24Z" fill="white"/>
<path d="M12.0862 14.0889C12.2232 13.9311 12.2875 13.8439 12.365 13.7693C15.6579 10.6003 18.9515 7.43128 22.2456 4.26227C22.5304 3.98771 22.8381 3.80853 23.2587 3.90737C23.4154 3.94146 23.5606 4.01317 23.6807 4.1158C23.8008 4.21844 23.8919 4.34866 23.9455 4.49433C23.9992 4.63999 24.0136 4.79635 23.9874 4.94882C23.9612 5.10129 23.8954 5.2449 23.7959 5.36626C23.7202 5.45586 23.6383 5.54044 23.5507 5.61943C20.0098 9.02619 16.4683 12.4324 12.9262 15.838C12.3494 16.3923 11.8548 16.3911 11.2768 15.8351C9.65755 14.2787 8.03812 12.7231 6.4185 11.1683C6.12947 10.8908 5.97203 10.5822 6.0868 10.1857C6.12679 10.041 6.20314 9.90806 6.30913 9.79848C6.41512 9.6889 6.5475 9.60608 6.69461 9.55732C6.84172 9.50855 6.99904 9.49533 7.15271 9.51883C7.30639 9.54232 7.45169 9.60181 7.57583 9.69205C7.70016 9.78858 7.81723 9.89347 7.92616 10.0059C9.23491 11.2633 10.5425 12.5214 11.8488 13.7803C11.9251 13.8497 11.9792 13.9462 12.0862 14.0889Z" fill="white"/>
</svg>
