<svg width="12" height="12" viewBox="0 0 12 12" fill="none" xmlns="http://www.w3.org/2000/svg">
<path d="M1.58301 5.99635C0.884267 5.50638 0.363319 4.93962 0.131292 4.19872C-0.430551 2.40979 0.866488 0.557541 2.95917 0.121391C4.47491 -0.195233 5.84218 0.113476 7.00498 0.97786C7.90197 1.64515 8.71006 2.41296 9.51016 3.17523C10.2667 3.89476 10.9654 4.66415 11.6837 5.41614C12.1042 5.85624 12.1087 6.15862 11.6775 6.59002C10.3814 7.88739 9.09944 9.20217 7.76595 10.4631C7.01476 11.1755 6.09109 11.6893 4.99319 11.9077C2.94851 12.3146 0.605125 11.3592 0.103734 9.37473C-0.202969 8.17077 0.197966 7.15836 1.18119 6.31218C1.24431 6.25757 1.31365 6.20691 1.37944 6.15387L1.58301 5.99635Z" fill="#474747"/>
</svg>
