<svg width="19" height="24" viewBox="0 0 19 24" fill="none" xmlns="http://www.w3.org/2000/svg">
<path d="M3.60751 7.26099C3.60751 6.7778 3.61418 6.3109 3.60751 5.844C3.55191 2.67402 6.05 0.281653 8.90837 0.0260103C11.5215 -0.207721 13.9123 1.14972 14.9359 3.45612C15.2637 4.19291 15.4252 4.9942 15.4085 5.80186C15.4013 6.28674 15.4085 6.77218 15.4085 7.26268C16.471 7.43966 17.34 7.91892 18.0167 8.73192C18.6551 9.48908 19.0012 10.4538 18.9913 11.4485C18.998 14.2207 19.0069 16.9923 18.9913 19.7639C18.9763 22.1602 17.1566 23.9851 14.7802 23.9924C11.2589 24.0025 7.73763 24.0025 4.21632 23.9924C1.83277 23.9851 0.015222 22.1445 0.00577009 19.7336C-0.00534982 17.0367 0.00243411 14.3398 0.00577009 11.6429C0.0035461 9.35277 1.34906 7.70373 3.60751 7.26099ZM6.02109 7.19638H13.0211C13.0211 6.60082 13.0383 6.02267 13.0133 5.44621C12.9963 5.17568 12.9401 4.90914 12.8465 4.65512C12.315 3.13811 10.6331 2.16442 9.01735 2.42063C7.42664 2.67234 6.25238 3.72637 6.03443 5.20686C5.94269 5.84625 6.01886 6.51204 6.01886 7.19638H6.02109ZM8.27732 17.0288C8.27732 17.3288 8.27732 17.6283 8.27732 17.9278C8.28566 18.6486 8.80773 19.1942 9.48938 19.1992C10.1838 19.2043 10.7159 18.6565 10.722 17.9205C10.727 17.3401 10.7315 16.7591 10.7192 16.1787C10.7137 16.0879 10.7296 15.9971 10.7657 15.9138C10.8017 15.8305 10.8569 15.757 10.9266 15.6995C11.3197 15.3259 11.5534 14.8124 11.5782 14.2677C11.6029 13.723 11.4168 13.19 11.0593 12.7817C10.7017 12.3733 10.2009 12.1217 9.66286 12.0802C9.12485 12.0387 8.59199 12.2105 8.17724 12.5593C7.311 13.2824 7.12362 14.5949 7.87033 15.4416C8.23673 15.8573 8.3079 16.2596 8.27732 16.7479C8.27009 16.8423 8.27787 16.9361 8.27787 17.0299L8.27732 17.0288Z" fill="white"/>
</svg>
