<svg width="40" height="40" viewBox="0 0 40 40" fill="none" xmlns="http://www.w3.org/2000/svg">
<path d="M30.2525 2.81806C30.2058 2.49219 30.1592 2.25633 30.1387 2.02048C30.0544 0.982483 30.6954 0.160975 31.688 0.0196887C32.6807 -0.121597 33.5391 0.509632 33.7258 1.5237C34.0559 3.31028 34.3766 5.09914 34.6878 6.89028C34.8414 7.77332 34.3906 8.59939 33.5493 8.89905C31.9442 9.46077 30.3311 10.0065 28.7077 10.5147C27.7207 10.8235 26.7519 10.2641 26.4559 9.29328C26.169 8.35214 26.6677 7.39276 27.6364 7.04638C28.1419 6.86522 28.6542 6.70456 29.2234 6.51086C28.2091 5.80083 27.1109 5.21911 25.9539 4.77897C19.6289 2.35091 12.6982 3.90163 8.04664 8.83638C5.44196 11.5983 3.98252 14.9026 3.71271 18.6968C3.33818 23.9528 5.0788 28.425 8.91411 32.0278C11.6565 34.6051 14.9477 36.0282 18.7045 36.3039C26.9784 36.9112 34.1721 31.5652 35.9799 23.4697C36.6458 20.489 36.4455 17.5448 35.471 14.6485C35.3503 14.2896 35.2285 13.9079 35.2262 13.5364C35.2318 13.1198 35.3843 12.7186 35.6568 12.4036C35.9292 12.0886 36.3041 11.88 36.7153 11.8148C37.1398 11.7393 37.5773 11.8181 37.949 12.0368C38.3207 12.2555 38.6022 12.5998 38.7428 13.0077C39.2871 14.4427 39.6563 15.9381 39.8425 17.4617C40.4322 22.475 39.3757 27.1169 36.5092 31.2701C33.0507 36.2834 28.25 39.2003 22.1937 39.8737C12.1757 40.988 3.01943 34.6267 0.602579 24.8336C-2.16262 13.6298 4.88072 2.77818 15.7594 0.472031C20.7206 -0.579637 25.4359 0.165532 29.8757 2.62322C29.9793 2.67791 30.0783 2.72691 30.2525 2.81806Z" fill="#B498E8"/>
<path d="M28.5713 20.0029C28.5378 21.7248 28.1249 23.3324 26.99 24.6771C25.1633 26.8426 22.2514 26.7998 20.4659 24.595C19.6023 23.5271 19.149 22.2819 19.0168 20.9224C18.828 19.0014 19.1473 17.1799 20.3174 15.6012C21.2505 14.3412 22.4772 13.6295 24.073 13.7439C25.3367 13.8312 26.3204 14.4739 27.0973 15.4554C28.1472 16.7756 28.5378 18.3238 28.5713 20.0029ZM25.8165 20.0073C25.808 18.9708 25.6071 17.985 24.9177 17.1843C24.6824 16.9057 24.3793 16.6949 24.0387 16.573C23.3786 16.3617 22.9073 16.7712 22.5356 17.2637C21.8565 18.1614 21.6634 19.21 21.7218 20.3199C21.7707 21.228 21.9999 22.0837 22.5802 22.7988C23.3399 23.7288 24.2361 23.7139 24.9718 22.7648C25.1163 22.5758 25.2422 22.3728 25.3478 22.1588C25.6724 21.4906 25.8332 20.7524 25.8165 20.0073Z" fill="#B498E8"/>
<path d="M14.8578 17.5823L13.5452 18.3787C13.3691 18.4948 13.1688 18.5677 12.9603 18.5917C12.7517 18.6156 12.5405 18.5899 12.3434 18.5166C12.1068 18.44 11.8969 18.2957 11.7386 18.1011C11.5803 17.9065 11.4803 17.6698 11.4506 17.419C11.3648 16.8768 11.5279 16.3922 11.9777 16.1093C13.1795 15.3391 14.3933 14.5786 15.6372 13.88C16.524 13.3814 17.5704 14.0695 17.5825 15.1199C17.6005 16.7423 17.5885 18.3638 17.5885 19.9862C17.5885 21.6086 17.5885 23.2519 17.5885 24.8848C17.5992 25.1544 17.5277 25.4209 17.3839 25.6477C17.2401 25.8745 17.0309 26.0505 16.785 26.1518C16.2845 26.3832 15.7986 26.3107 15.3668 25.9658C14.996 25.6689 14.8517 25.2672 14.8569 24.7879C14.8638 22.9804 14.8569 21.1737 14.8569 19.3662L14.8578 17.5823Z" fill="#B498E8"/>
</svg>
