<svg width="70" height="70" viewBox="0 0 70 70" fill="none" xmlns="http://www.w3.org/2000/svg">
<g filter="url(#filter0_d_236_2)">
<path d="M35.0522 14.0149C35.4771 14.0149 35.8215 13.6704 35.8215 13.2456C35.8215 12.8207 35.4771 12.4763 35.0522 12.4763C34.6274 12.4763 34.283 12.8207 34.283 13.2456C34.283 13.6704 34.6274 14.0149 35.0522 14.0149Z" fill="url(#paint0_linear_236_2)"/>
<path d="M38.8389 14.3462C39.2637 14.3462 39.6082 14.0018 39.6082 13.5769C39.6082 13.152 39.2637 12.8076 38.8389 12.8076C38.414 12.8076 38.0696 13.152 38.0696 13.5769C38.0696 14.0018 38.414 14.3462 38.8389 14.3462Z" fill="url(#paint1_linear_236_2)"/>
<path d="M42.509 15.329C42.9339 15.329 43.2783 14.9846 43.2783 14.5598C43.2783 14.1349 42.9339 13.7905 42.509 13.7905C42.0842 13.7905 41.7397 14.1349 41.7397 14.5598C41.7397 14.9846 42.0842 15.329 42.509 15.329Z" fill="url(#paint2_linear_236_2)"/>
<path d="M45.9548 16.9365C46.3797 16.9365 46.7241 16.5921 46.7241 16.1672C46.7241 15.7424 46.3797 15.3979 45.9548 15.3979C45.53 15.3979 45.1855 15.7424 45.1855 16.1672C45.1855 16.5921 45.53 16.9365 45.9548 16.9365Z" fill="url(#paint3_linear_236_2)"/>
<path d="M49.0676 19.1153C49.4925 19.1153 49.8369 18.7709 49.8369 18.346C49.8369 17.9211 49.4925 17.5767 49.0676 17.5767C48.6428 17.5767 48.2983 17.9211 48.2983 18.346C48.2983 18.7709 48.6428 19.1153 49.0676 19.1153Z" fill="url(#paint4_linear_236_2)"/>
<path d="M51.7542 21.8033C52.179 21.8033 52.5234 21.4589 52.5234 21.034C52.5234 20.6091 52.179 20.2647 51.7542 20.2647C51.3293 20.2647 50.9849 20.6091 50.9849 21.034C50.9849 21.4589 51.3293 21.8033 51.7542 21.8033Z" fill="url(#paint5_linear_236_2)"/>
<path d="M53.9358 24.9179C54.3607 24.9179 54.7051 24.5735 54.7051 24.1486C54.7051 23.7237 54.3607 23.3793 53.9358 23.3793C53.5109 23.3793 53.1665 23.7237 53.1665 24.1486C53.1665 24.5735 53.5109 24.9179 53.9358 24.9179Z" fill="url(#paint6_linear_236_2)"/>
<path d="M55.5413 28.3619C55.9661 28.3619 56.3105 28.0175 56.3105 27.5926C56.3105 27.1678 55.9661 26.8233 55.5413 26.8233C55.1164 26.8233 54.772 27.1678 54.772 27.5926C54.772 28.0175 55.1164 28.3619 55.5413 28.3619Z" fill="url(#paint7_linear_236_2)"/>
<path d="M56.5269 32.0342C56.9517 32.0342 57.2961 31.6898 57.2961 31.2649C57.2961 30.84 56.9517 30.4956 56.5269 30.4956C56.102 30.4956 55.7576 30.84 55.7576 31.2649C55.7576 31.6898 56.102 32.0342 56.5269 32.0342Z" fill="url(#paint8_linear_236_2)"/>
<path d="M56.8567 35.8208C57.2816 35.8208 57.626 35.4764 57.626 35.0515C57.626 34.6266 57.2816 34.2822 56.8567 34.2822C56.4318 34.2822 56.0874 34.6266 56.0874 35.0515C56.0874 35.4764 56.4318 35.8208 56.8567 35.8208Z" fill="url(#paint9_linear_236_2)"/>
<path d="M56.5269 39.6074C56.9517 39.6074 57.2961 39.263 57.2961 38.8381C57.2961 38.4133 56.9517 38.0688 56.5269 38.0688C56.102 38.0688 55.7576 38.4133 55.7576 38.8381C55.7576 39.263 56.102 39.6074 56.5269 39.6074Z" fill="url(#paint10_linear_236_2)"/>
<path d="M55.5413 43.2779C55.9661 43.2779 56.3105 42.9335 56.3105 42.5086C56.3105 42.0837 55.9661 41.7393 55.5413 41.7393C55.1164 41.7393 54.772 42.0837 54.772 42.5086C54.772 42.9335 55.1164 43.2779 55.5413 43.2779Z" fill="url(#paint11_linear_236_2)"/>
<path d="M53.9358 46.7237C54.3607 46.7237 54.7051 46.3793 54.7051 45.9544C54.7051 45.5296 54.3607 45.1852 53.9358 45.1852C53.5109 45.1852 53.1665 45.5296 53.1665 45.9544C53.1665 46.3793 53.5109 46.7237 53.9358 46.7237Z" fill="url(#paint12_linear_236_2)"/>
<path d="M51.7542 49.8365C52.179 49.8365 52.5234 49.4921 52.5234 49.0672C52.5234 48.6424 52.179 48.2979 51.7542 48.2979C51.3293 48.2979 50.9849 48.6424 50.9849 49.0672C50.9849 49.4921 51.3293 49.8365 51.7542 49.8365Z" fill="url(#paint13_linear_236_2)"/>
<path d="M49.0676 52.5242C49.4925 52.5242 49.8369 52.1798 49.8369 51.7549C49.8369 51.33 49.4925 50.9856 49.0676 50.9856C48.6428 50.9856 48.2983 51.33 48.2983 51.7549C48.2983 52.1798 48.6428 52.5242 49.0676 52.5242Z" fill="url(#paint14_linear_236_2)"/>
<path d="M45.9548 54.7047C46.3797 54.7047 46.7241 54.3603 46.7241 53.9354C46.7241 53.5105 46.3797 53.1661 45.9548 53.1661C45.53 53.1661 45.1855 53.5105 45.1855 53.9354C45.1855 54.3603 45.53 54.7047 45.9548 54.7047Z" fill="url(#paint15_linear_236_2)"/>
<path d="M42.509 56.3108C42.9339 56.3108 43.2783 55.9664 43.2783 55.5415C43.2783 55.1167 42.9339 54.7722 42.509 54.7722C42.0842 54.7722 41.7397 55.1167 41.7397 55.5415C41.7397 55.9664 42.0842 56.3108 42.509 56.3108Z" fill="url(#paint16_linear_236_2)"/>
<path d="M38.8389 57.2954C39.2637 57.2954 39.6082 56.951 39.6082 56.5261C39.6082 56.1013 39.2637 55.7568 38.8389 55.7568C38.414 55.7568 38.0696 56.1013 38.0696 56.5261C38.0696 56.951 38.414 57.2954 38.8389 57.2954Z" fill="url(#paint17_linear_236_2)"/>
<path d="M35.0522 57.6267C35.4771 57.6267 35.8215 57.2823 35.8215 56.8575C35.8215 56.4326 35.4771 56.0882 35.0522 56.0882C34.6274 56.0882 34.283 56.4326 34.283 56.8575C34.283 57.2823 34.6274 57.6267 35.0522 57.6267Z" fill="url(#paint18_linear_236_2)"/>
<path d="M31.2649 57.2954C31.6898 57.2954 32.0342 56.951 32.0342 56.5261C32.0342 56.1013 31.6898 55.7568 31.2649 55.7568C30.84 55.7568 30.4956 56.1013 30.4956 56.5261C30.4956 56.951 30.84 57.2954 31.2649 57.2954Z" fill="url(#paint19_linear_236_2)"/>
<path d="M27.5923 56.3108C28.0172 56.3108 28.3616 55.9664 28.3616 55.5415C28.3616 55.1167 28.0172 54.7722 27.5923 54.7722C27.1674 54.7722 26.823 55.1167 26.823 55.5415C26.823 55.9664 27.1674 56.3108 27.5923 56.3108Z" fill="url(#paint20_linear_236_2)"/>
<path d="M24.1489 54.7047C24.5738 54.7047 24.9182 54.3603 24.9182 53.9354C24.9182 53.5105 24.5738 53.1661 24.1489 53.1661C23.7241 53.1661 23.3796 53.5105 23.3796 53.9354C23.3796 54.3603 23.7241 54.7047 24.1489 54.7047Z" fill="url(#paint21_linear_236_2)"/>
<path d="M21.0344 52.5242C21.4593 52.5242 21.8037 52.1798 21.8037 51.7549C21.8037 51.33 21.4593 50.9856 21.0344 50.9856C20.6096 50.9856 20.2651 51.33 20.2651 51.7549C20.2651 52.1798 20.6096 52.5242 21.0344 52.5242Z" fill="url(#paint22_linear_236_2)"/>
<path d="M18.3457 49.8365C18.7706 49.8365 19.115 49.4921 19.115 49.0672C19.115 48.6424 18.7706 48.2979 18.3457 48.2979C17.9208 48.2979 17.5764 48.6424 17.5764 49.0672C17.5764 49.4921 17.9208 49.8365 18.3457 49.8365Z" fill="url(#paint23_linear_236_2)"/>
<path d="M16.168 46.7237C16.5928 46.7237 16.9373 46.3793 16.9373 45.9544C16.9373 45.5296 16.5928 45.1852 16.168 45.1852C15.7431 45.1852 15.3987 45.5296 15.3987 45.9544C15.3987 46.3793 15.7431 46.7237 16.168 46.7237Z" fill="url(#paint24_linear_236_2)"/>
<path d="M14.5598 43.2779C14.9847 43.2779 15.3291 42.9335 15.3291 42.5086C15.3291 42.0837 14.9847 41.7393 14.5598 41.7393C14.1349 41.7393 13.7905 42.0837 13.7905 42.5086C13.7905 42.9335 14.1349 43.2779 14.5598 43.2779Z" fill="url(#paint25_linear_236_2)"/>
<path d="M13.5769 39.6074C14.0018 39.6074 14.3462 39.263 14.3462 38.8381C14.3462 38.4133 14.0018 38.0688 13.5769 38.0688C13.152 38.0688 12.8076 38.4133 12.8076 38.8381C12.8076 39.263 13.152 39.6074 13.5769 39.6074Z" fill="url(#paint26_linear_236_2)"/>
<path d="M13.2456 35.8208C13.6705 35.8208 14.0149 35.4764 14.0149 35.0515C14.0149 34.6266 13.6705 34.2822 13.2456 34.2822C12.8207 34.2822 12.4763 34.6266 12.4763 35.0515C12.4763 35.4764 12.8207 35.8208 13.2456 35.8208Z" fill="url(#paint27_linear_236_2)"/>
<path d="M13.5769 32.0342C14.0018 32.0342 14.3462 31.6898 14.3462 31.2649C14.3462 30.84 14.0018 30.4956 13.5769 30.4956C13.152 30.4956 12.8076 30.84 12.8076 31.2649C12.8076 31.6898 13.152 32.0342 13.5769 32.0342Z" fill="url(#paint28_linear_236_2)"/>
<path d="M14.5598 28.3619C14.9847 28.3619 15.3291 28.0175 15.3291 27.5926C15.3291 27.1678 14.9847 26.8233 14.5598 26.8233C14.1349 26.8233 13.7905 27.1678 13.7905 27.5926C13.7905 28.0175 14.1349 28.3619 14.5598 28.3619Z" fill="url(#paint29_linear_236_2)"/>
<path d="M16.168 24.9179C16.5928 24.9179 16.9373 24.5735 16.9373 24.1486C16.9373 23.7237 16.5928 23.3793 16.168 23.3793C15.7431 23.3793 15.3987 23.7237 15.3987 24.1486C15.3987 24.5735 15.7431 24.9179 16.168 24.9179Z" fill="url(#paint30_linear_236_2)"/>
<path d="M18.3457 21.8033C18.7706 21.8033 19.115 21.4589 19.115 21.034C19.115 20.6091 18.7706 20.2647 18.3457 20.2647C17.9208 20.2647 17.5764 20.6091 17.5764 21.034C17.5764 21.4589 17.9208 21.8033 18.3457 21.8033Z" fill="url(#paint31_linear_236_2)"/>
<path d="M21.0344 19.1153C21.4593 19.1153 21.8037 18.7709 21.8037 18.346C21.8037 17.9211 21.4593 17.5767 21.0344 17.5767C20.6096 17.5767 20.2651 17.9211 20.2651 18.346C20.2651 18.7709 20.6096 19.1153 21.0344 19.1153Z" fill="url(#paint32_linear_236_2)"/>
<path d="M24.1489 16.9365C24.5738 16.9365 24.9182 16.5921 24.9182 16.1672C24.9182 15.7424 24.5738 15.3979 24.1489 15.3979C23.7241 15.3979 23.3796 15.7424 23.3796 16.1672C23.3796 16.5921 23.7241 16.9365 24.1489 16.9365Z" fill="url(#paint33_linear_236_2)"/>
<path d="M27.5923 15.329C28.0172 15.329 28.3616 14.9846 28.3616 14.5598C28.3616 14.1349 28.0172 13.7905 27.5923 13.7905C27.1674 13.7905 26.823 14.1349 26.823 14.5598C26.823 14.9846 27.1674 15.329 27.5923 15.329Z" fill="url(#paint34_linear_236_2)"/>
<path d="M31.2649 14.3462C31.6898 14.3462 32.0342 14.0018 32.0342 13.5769C32.0342 13.152 31.6898 12.8076 31.2649 12.8076C30.84 12.8076 30.4956 13.152 30.4956 13.5769C30.4956 14.0018 30.84 14.3462 31.2649 14.3462Z" fill="url(#paint35_linear_236_2)"/>
<path d="M32.8591 11.7171C33.3315 11.7171 33.7144 11.3341 33.7144 10.8617C33.7144 10.3893 33.3315 10.0063 32.8591 10.0063C32.3866 10.0063 32.0037 10.3893 32.0037 10.8617C32.0037 11.3341 32.3866 11.7171 32.8591 11.7171Z" fill="url(#paint36_linear_236_2)"/>
<path d="M37.0841 11.7108C37.5566 11.7108 37.9395 11.3278 37.9395 10.8554C37.9395 10.383 37.5566 10 37.0841 10C36.6117 10 36.2288 10.383 36.2288 10.8554C36.2288 11.3278 36.6117 11.7108 37.0841 11.7108Z" fill="url(#paint37_linear_236_2)"/>
<path d="M41.2445 12.439C41.717 12.439 42.0999 12.056 42.0999 11.5836C42.0999 11.1112 41.717 10.7282 41.2445 10.7282C40.7721 10.7282 40.3892 11.1112 40.3892 11.5836C40.3892 12.056 40.7721 12.439 41.2445 12.439Z" fill="url(#paint38_linear_236_2)"/>
<path d="M45.2143 13.8801C45.6867 13.8801 46.0697 13.4972 46.0697 13.0248C46.0697 12.5523 45.6867 12.1694 45.2143 12.1694C44.7419 12.1694 44.3589 12.5523 44.3589 13.0248C44.3589 13.4972 44.7419 13.8801 45.2143 13.8801Z" fill="url(#paint39_linear_236_2)"/>
<path d="M48.8761 15.9877C49.3486 15.9877 49.7315 15.6048 49.7315 15.1323C49.7315 14.6599 49.3486 14.2769 48.8761 14.2769C48.4037 14.2769 48.0208 14.6599 48.0208 15.1323C48.0208 15.6048 48.4037 15.9877 48.8761 15.9877Z" fill="url(#paint40_linear_236_2)"/>
<path d="M52.1166 18.6981C52.589 18.6981 52.972 18.3151 52.972 17.8427C52.972 17.3703 52.589 16.9873 52.1166 16.9873C51.6442 16.9873 51.2612 17.3703 51.2612 17.8427C51.2612 18.3151 51.6442 18.6981 52.1166 18.6981Z" fill="url(#paint41_linear_236_2)"/>
<path d="M54.8334 21.9322C55.3058 21.9322 55.6888 21.5493 55.6888 21.0769C55.6888 20.6044 55.3058 20.2215 54.8334 20.2215C54.361 20.2215 53.978 20.6044 53.978 21.0769C53.978 21.5493 54.361 21.9322 54.8334 21.9322Z" fill="url(#paint42_linear_236_2)"/>
<path d="M56.9508 25.5877C57.4233 25.5877 57.8062 25.2048 57.8062 24.7323C57.8062 24.2599 57.4233 23.877 56.9508 23.877C56.4784 23.877 56.0955 24.2599 56.0955 24.7323C56.0955 25.2048 56.4784 25.5877 56.9508 25.5877Z" fill="url(#paint43_linear_236_2)"/>
<path d="M58.3993 29.5561C58.8718 29.5561 59.2547 29.1731 59.2547 28.7007C59.2547 28.2282 58.8718 27.8453 58.3993 27.8453C57.9269 27.8453 57.5439 28.2282 57.5439 28.7007C57.5439 29.1731 57.9269 29.5561 58.3993 29.5561Z" fill="url(#paint44_linear_236_2)"/>
<path d="M59.1398 33.7152C59.6122 33.7152 59.9952 33.3322 59.9952 32.8598C59.9952 32.3874 59.6122 32.0044 59.1398 32.0044C58.6674 32.0044 58.2844 32.3874 58.2844 32.8598C58.2844 33.3322 58.6674 33.7152 59.1398 33.7152Z" fill="url(#paint45_linear_236_2)"/>
<path d="M59.1447 37.9395C59.6171 37.9395 60.0001 37.5565 60.0001 37.0841C60.0001 36.6117 59.6171 36.2287 59.1447 36.2287C58.6723 36.2287 58.2893 36.6117 58.2893 37.0841C58.2893 37.5565 58.6723 37.9395 59.1447 37.9395Z" fill="url(#paint46_linear_236_2)"/>
<path d="M58.4147 42.1004C58.8871 42.1004 59.2701 41.7174 59.2701 41.245C59.2701 40.7726 58.8871 40.3896 58.4147 40.3896C57.9423 40.3896 57.5593 40.7726 57.5593 41.245C57.5593 41.7174 57.9423 42.1004 58.4147 42.1004Z" fill="url(#paint47_linear_236_2)"/>
<path d="M56.9753 46.0704C57.4477 46.0704 57.8307 45.6875 57.8307 45.215C57.8307 44.7426 57.4477 44.3596 56.9753 44.3596C56.5028 44.3596 56.1199 44.7426 56.1199 45.215C56.1199 45.6875 56.5028 46.0704 56.9753 46.0704Z" fill="url(#paint48_linear_236_2)"/>
<path d="M54.8676 49.7315C55.34 49.7315 55.723 49.3485 55.723 48.8761C55.723 48.4037 55.34 48.0207 54.8676 48.0207C54.3952 48.0207 54.0122 48.4037 54.0122 48.8761C54.0122 49.3485 54.3952 49.7315 54.8676 49.7315Z" fill="url(#paint49_linear_236_2)"/>
<path d="M52.1559 52.9716C52.6283 52.9716 53.0113 52.5886 53.0113 52.1162C53.0113 51.6438 52.6283 51.2608 52.1559 51.2608C51.6835 51.2608 51.3005 51.6438 51.3005 52.1162C51.3005 52.5886 51.6835 52.9716 52.1559 52.9716Z" fill="url(#paint50_linear_236_2)"/>
<path d="M48.9233 55.6892C49.3957 55.6892 49.7786 55.3063 49.7786 54.8338C49.7786 54.3614 49.3957 53.9785 48.9233 53.9785C48.4508 53.9785 48.0679 54.3614 48.0679 54.8338C48.0679 55.3063 48.4508 55.6892 48.9233 55.6892Z" fill="url(#paint51_linear_236_2)"/>
<path d="M45.2677 57.8063C45.7402 57.8063 46.1231 57.4233 46.1231 56.9509C46.1231 56.4785 45.7402 56.0955 45.2677 56.0955C44.7953 56.0955 44.4124 56.4785 44.4124 56.9509C44.4124 57.4233 44.7953 57.8063 45.2677 57.8063Z" fill="url(#paint52_linear_236_2)"/>
<path d="M41.299 59.2551C41.7714 59.2551 42.1544 58.8721 42.1544 58.3997C42.1544 57.9273 41.7714 57.5443 41.299 57.5443C40.8266 57.5443 40.4436 57.9273 40.4436 58.3997C40.4436 58.8721 40.8266 59.2551 41.299 59.2551Z" fill="url(#paint53_linear_236_2)"/>
<path d="M37.141 59.9945C37.6135 59.9945 37.9964 59.6115 37.9964 59.1391C37.9964 58.6667 37.6135 58.2837 37.141 58.2837C36.6686 58.2837 36.2856 58.6667 36.2856 59.1391C36.2856 59.6115 36.6686 59.9945 37.141 59.9945Z" fill="url(#paint54_linear_236_2)"/>
<path d="M32.9167 60.0001C33.3891 60.0001 33.7721 59.6171 33.7721 59.1447C33.7721 58.6722 33.3891 58.2893 32.9167 58.2893C32.4442 58.2893 32.0613 58.6722 32.0613 59.1447C32.0613 59.6171 32.4442 60.0001 32.9167 60.0001Z" fill="url(#paint55_linear_236_2)"/>
<path d="M28.755 59.2701C29.2275 59.2701 29.6104 58.8871 29.6104 58.4147C29.6104 57.9423 29.2275 57.5593 28.755 57.5593C28.2826 57.5593 27.8997 57.9423 27.8997 58.4147C27.8997 58.8871 28.2826 59.2701 28.755 59.2701Z" fill="url(#paint56_linear_236_2)"/>
<path d="M24.7829 57.8307C25.2553 57.8307 25.6383 57.4477 25.6383 56.9753C25.6383 56.5029 25.2553 56.1199 24.7829 56.1199C24.3105 56.1199 23.9275 56.5029 23.9275 56.9753C23.9275 57.4477 24.3105 57.8307 24.7829 57.8307Z" fill="url(#paint57_linear_236_2)"/>
<path d="M21.1222 55.723C21.5947 55.723 21.9776 55.3401 21.9776 54.8677C21.9776 54.3952 21.5947 54.0123 21.1222 54.0123C20.6498 54.0123 20.2668 54.3952 20.2668 54.8677C20.2668 55.3401 20.6498 55.723 21.1222 55.723Z" fill="url(#paint58_linear_236_2)"/>
<path d="M17.8835 53.011C18.3559 53.011 18.7389 52.628 18.7389 52.1556C18.7389 51.6832 18.3559 51.3002 17.8835 51.3002C17.411 51.3002 17.0281 51.6832 17.0281 52.1556C17.0281 52.628 17.411 53.011 17.8835 53.011Z" fill="url(#paint59_linear_236_2)"/>
<path d="M15.1637 49.7786C15.6362 49.7786 16.0191 49.3956 16.0191 48.9232C16.0191 48.4508 15.6362 48.0678 15.1637 48.0678C14.6913 48.0678 14.3083 48.4508 14.3083 48.9232C14.3083 49.3956 14.6913 49.7786 15.1637 49.7786Z" fill="url(#paint60_linear_236_2)"/>
<path d="M13.0463 46.1228C13.5187 46.1228 13.9017 45.7398 13.9017 45.2674C13.9017 44.795 13.5187 44.412 13.0463 44.412C12.5739 44.412 12.1909 44.795 12.1909 45.2674C12.1909 45.7398 12.5739 46.1228 13.0463 46.1228Z" fill="url(#paint61_linear_236_2)"/>
<path d="M11.5983 42.1547C12.0707 42.1547 12.4537 41.7717 12.4537 41.2993C12.4537 40.8269 12.0707 40.4439 11.5983 40.4439C11.1259 40.4439 10.7429 40.8269 10.7429 41.2993C10.7429 41.7717 11.1259 42.1547 11.5983 42.1547Z" fill="url(#paint62_linear_236_2)"/>
<path d="M10.8617 37.9957C11.3342 37.9957 11.7171 37.6127 11.7171 37.1403C11.7171 36.6679 11.3342 36.2849 10.8617 36.2849C10.3893 36.2849 10.0063 36.6679 10.0063 37.1403C10.0063 37.6127 10.3893 37.9957 10.8617 37.9957Z" fill="url(#paint63_linear_236_2)"/>
<path d="M10.8554 33.7713C11.3278 33.7713 11.7108 33.3884 11.7108 32.9159C11.7108 32.4435 11.3278 32.0605 10.8554 32.0605C10.383 32.0605 10 32.4435 10 32.9159C10 33.3884 10.383 33.7713 10.8554 33.7713Z" fill="url(#paint64_linear_236_2)"/>
<path d="M11.5829 29.6101C12.0553 29.6101 12.4383 29.2272 12.4383 28.7547C12.4383 28.2823 12.0553 27.8994 11.5829 27.8994C11.1105 27.8994 10.7275 28.2823 10.7275 28.7547C10.7275 29.2272 11.1105 29.6101 11.5829 29.6101Z" fill="url(#paint65_linear_236_2)"/>
<path d="M13.0248 25.6383C13.4972 25.6383 13.8802 25.2553 13.8802 24.7829C13.8802 24.3105 13.4972 23.9275 13.0248 23.9275C12.5524 23.9275 12.1694 24.3105 12.1694 24.7829C12.1694 25.2553 12.5524 25.6383 13.0248 25.6383Z" fill="url(#paint66_linear_236_2)"/>
<path d="M15.1335 21.9773C15.6059 21.9773 15.9889 21.5943 15.9889 21.1219C15.9889 20.6495 15.6059 20.2665 15.1335 20.2665C14.661 20.2665 14.2781 20.6495 14.2781 21.1219C14.2781 21.5943 14.661 21.9773 15.1335 21.9773Z" fill="url(#paint67_linear_236_2)"/>
<path d="M17.8434 18.7392C18.3158 18.7392 18.6988 18.3562 18.6988 17.8838C18.6988 17.4114 18.3158 17.0284 17.8434 17.0284C17.371 17.0284 16.988 17.4114 16.988 17.8838C16.988 18.3562 17.371 18.7392 17.8434 18.7392Z" fill="url(#paint68_linear_236_2)"/>
<path d="M21.0776 16.0195C21.55 16.0195 21.9329 15.6365 21.9329 15.1641C21.9329 14.6917 21.55 14.3087 21.0776 14.3087C20.6051 14.3087 20.2222 14.6917 20.2222 15.1641C20.2222 15.6365 20.6051 16.0195 21.0776 16.0195Z" fill="url(#paint69_linear_236_2)"/>
<path d="M24.7323 13.9028C25.2048 13.9028 25.5877 13.5198 25.5877 13.0474C25.5877 12.575 25.2048 12.192 24.7323 12.192C24.2599 12.192 23.877 12.575 23.877 13.0474C23.877 13.5198 24.2599 13.9028 24.7323 13.9028Z" fill="url(#paint70_linear_236_2)"/>
<path d="M28.7004 12.454C29.1728 12.454 29.5557 12.071 29.5557 11.5986C29.5557 11.1262 29.1728 10.7432 28.7004 10.7432C28.2279 10.7432 27.845 11.1262 27.845 11.5986C27.845 12.071 28.2279 12.454 28.7004 12.454Z" fill="url(#paint71_linear_236_2)"/>
<path d="M15.0405 36.2213V33.8761C15.0697 33.7653 15.0916 33.6527 15.106 33.5391C15.279 30.7766 16.0586 28.0861 17.3896 25.6591C20.5023 20.0251 25.2303 16.5736 31.5624 15.3645C32.3261 15.2185 33.1048 15.1511 33.8759 15.0481H36.2156C36.3148 15.0776 36.4162 15.0989 36.5188 15.1118C39.2838 15.2718 41.9778 16.0495 44.4026 17.3878C50.9781 21.0695 54.555 26.696 55.0192 34.2223C55.2572 37.7814 54.4513 41.3326 52.7001 44.4402C49.0259 50.9913 43.3975 54.5645 35.8881 55.0287C32.3283 55.2549 28.7789 54.4504 25.6646 52.7114C20.0206 49.6056 16.5841 44.88 15.355 38.5348C15.209 37.7693 15.1435 36.9906 15.0405 36.2213ZM31.3041 27.4934C30.5461 27.5589 30.0482 28.1242 30.0463 28.9664C30.0463 33.0157 30.0463 37.0642 30.0463 41.1122C30.0463 41.6606 30.2092 42.1136 30.7071 42.3906C31.2049 42.6677 31.656 42.5535 32.1071 42.2727C35.3515 40.2437 38.5958 38.216 41.8402 36.1895C42.7985 35.5868 42.8079 34.5162 41.8552 33.9191C38.6108 31.8789 35.3565 29.8455 32.0922 27.8191C31.839 27.6887 31.5754 27.5798 31.3041 27.4934Z" fill="url(#paint72_radial_236_2)"/>
<path d="M31.3047 27.4934C31.5721 27.5804 31.8319 27.6893 32.0815 27.8191C35.3396 29.8455 38.5939 31.8789 41.8445 33.9191C42.7972 34.5162 42.7804 35.5868 41.8295 36.1895C38.5852 38.2198 35.3408 40.2475 32.0964 42.2727C31.6453 42.5535 31.183 42.662 30.6964 42.3906C30.2097 42.1192 30.0356 41.6606 30.0356 41.1122C30.0356 37.063 30.0356 33.0144 30.0356 28.9664C30.0487 28.1242 30.5466 27.5589 31.3047 27.4934Z" fill="white"/>
</g>
<defs>
<filter id="filter0_d_236_2" x="0" y="0" width="70" height="70.0001" filterUnits="userSpaceOnUse" color-interpolation-filters="sRGB">
<feFlood flood-opacity="0" result="BackgroundImageFix"/>
<feColorMatrix in="SourceAlpha" type="matrix" values="0 0 0 0 0 0 0 0 0 0 0 0 0 0 0 0 0 0 127 0" result="hardAlpha"/>
<feOffset/>
<feGaussianBlur stdDeviation="5"/>
<feComposite in2="hardAlpha" operator="out"/>
<feColorMatrix type="matrix" values="0 0 0 0 0 0 0 0 0 0 0 0 0 0 0 0 0 0 0.2 0"/>
<feBlend mode="normal" in2="BackgroundImageFix" result="effect1_dropShadow_236_2"/>
<feBlend mode="normal" in="SourceGraphic" in2="effect1_dropShadow_236_2" result="shape"/>
</filter>
<linearGradient id="paint0_linear_236_2" x1="35.0522" y1="12.4763" x2="35.0522" y2="14.0149" gradientUnits="userSpaceOnUse">
<stop stop-color="#C5B4E3"/>
<stop offset="1" stop-color="#E6D8FF"/>
</linearGradient>
<linearGradient id="paint1_linear_236_2" x1="38.8389" y1="12.8076" x2="38.8389" y2="14.3462" gradientUnits="userSpaceOnUse">
<stop stop-color="#C5B4E3"/>
<stop offset="1" stop-color="#E6D8FF"/>
</linearGradient>
<linearGradient id="paint2_linear_236_2" x1="42.509" y1="13.7905" x2="42.509" y2="15.329" gradientUnits="userSpaceOnUse">
<stop stop-color="#C5B4E3"/>
<stop offset="1" stop-color="#E6D8FF"/>
</linearGradient>
<linearGradient id="paint3_linear_236_2" x1="45.9548" y1="15.3979" x2="45.9548" y2="16.9365" gradientUnits="userSpaceOnUse">
<stop stop-color="#C5B4E3"/>
<stop offset="1" stop-color="#E6D8FF"/>
</linearGradient>
<linearGradient id="paint4_linear_236_2" x1="49.0676" y1="17.5767" x2="49.0676" y2="19.1153" gradientUnits="userSpaceOnUse">
<stop stop-color="#C5B4E3"/>
<stop offset="1" stop-color="#E6D8FF"/>
</linearGradient>
<linearGradient id="paint5_linear_236_2" x1="51.7542" y1="20.2647" x2="51.7542" y2="21.8033" gradientUnits="userSpaceOnUse">
<stop stop-color="#C5B4E3"/>
<stop offset="1" stop-color="#E6D8FF"/>
</linearGradient>
<linearGradient id="paint6_linear_236_2" x1="53.9358" y1="23.3793" x2="53.9358" y2="24.9179" gradientUnits="userSpaceOnUse">
<stop stop-color="#C5B4E3"/>
<stop offset="1" stop-color="#E6D8FF"/>
</linearGradient>
<linearGradient id="paint7_linear_236_2" x1="55.5413" y1="26.8233" x2="55.5413" y2="28.3619" gradientUnits="userSpaceOnUse">
<stop stop-color="#C5B4E3"/>
<stop offset="1" stop-color="#E6D8FF"/>
</linearGradient>
<linearGradient id="paint8_linear_236_2" x1="56.5269" y1="30.4956" x2="56.5269" y2="32.0342" gradientUnits="userSpaceOnUse">
<stop stop-color="#C5B4E3"/>
<stop offset="1" stop-color="#E6D8FF"/>
</linearGradient>
<linearGradient id="paint9_linear_236_2" x1="56.8567" y1="34.2822" x2="56.8567" y2="35.8208" gradientUnits="userSpaceOnUse">
<stop stop-color="#C5B4E3"/>
<stop offset="1" stop-color="#E6D8FF"/>
</linearGradient>
<linearGradient id="paint10_linear_236_2" x1="56.5269" y1="38.0688" x2="56.5269" y2="39.6074" gradientUnits="userSpaceOnUse">
<stop stop-color="#C5B4E3"/>
<stop offset="1" stop-color="#E6D8FF"/>
</linearGradient>
<linearGradient id="paint11_linear_236_2" x1="55.5413" y1="41.7393" x2="55.5413" y2="43.2779" gradientUnits="userSpaceOnUse">
<stop stop-color="#C5B4E3"/>
<stop offset="1" stop-color="#E6D8FF"/>
</linearGradient>
<linearGradient id="paint12_linear_236_2" x1="53.9358" y1="45.1852" x2="53.9358" y2="46.7237" gradientUnits="userSpaceOnUse">
<stop stop-color="#C5B4E3"/>
<stop offset="1" stop-color="#E6D8FF"/>
</linearGradient>
<linearGradient id="paint13_linear_236_2" x1="51.7542" y1="48.2979" x2="51.7542" y2="49.8365" gradientUnits="userSpaceOnUse">
<stop stop-color="#C5B4E3"/>
<stop offset="1" stop-color="#E6D8FF"/>
</linearGradient>
<linearGradient id="paint14_linear_236_2" x1="49.0676" y1="50.9856" x2="49.0676" y2="52.5242" gradientUnits="userSpaceOnUse">
<stop stop-color="#C5B4E3"/>
<stop offset="1" stop-color="#E6D8FF"/>
</linearGradient>
<linearGradient id="paint15_linear_236_2" x1="45.9548" y1="53.1661" x2="45.9548" y2="54.7047" gradientUnits="userSpaceOnUse">
<stop stop-color="#C5B4E3"/>
<stop offset="1" stop-color="#E6D8FF"/>
</linearGradient>
<linearGradient id="paint16_linear_236_2" x1="42.509" y1="54.7722" x2="42.509" y2="56.3108" gradientUnits="userSpaceOnUse">
<stop stop-color="#C5B4E3"/>
<stop offset="1" stop-color="#E6D8FF"/>
</linearGradient>
<linearGradient id="paint17_linear_236_2" x1="38.8389" y1="55.7568" x2="38.8389" y2="57.2954" gradientUnits="userSpaceOnUse">
<stop stop-color="#C5B4E3"/>
<stop offset="1" stop-color="#E6D8FF"/>
</linearGradient>
<linearGradient id="paint18_linear_236_2" x1="35.0522" y1="56.0882" x2="35.0522" y2="57.6267" gradientUnits="userSpaceOnUse">
<stop stop-color="#C5B4E3"/>
<stop offset="1" stop-color="#E6D8FF"/>
</linearGradient>
<linearGradient id="paint19_linear_236_2" x1="31.2649" y1="55.7568" x2="31.2649" y2="57.2954" gradientUnits="userSpaceOnUse">
<stop stop-color="#C5B4E3"/>
<stop offset="1" stop-color="#E6D8FF"/>
</linearGradient>
<linearGradient id="paint20_linear_236_2" x1="27.5923" y1="54.7722" x2="27.5923" y2="56.3108" gradientUnits="userSpaceOnUse">
<stop stop-color="#C5B4E3"/>
<stop offset="1" stop-color="#E6D8FF"/>
</linearGradient>
<linearGradient id="paint21_linear_236_2" x1="24.1489" y1="53.1661" x2="24.1489" y2="54.7047" gradientUnits="userSpaceOnUse">
<stop stop-color="#C5B4E3"/>
<stop offset="1" stop-color="#E6D8FF"/>
</linearGradient>
<linearGradient id="paint22_linear_236_2" x1="21.0344" y1="50.9856" x2="21.0344" y2="52.5242" gradientUnits="userSpaceOnUse">
<stop stop-color="#C5B4E3"/>
<stop offset="1" stop-color="#E6D8FF"/>
</linearGradient>
<linearGradient id="paint23_linear_236_2" x1="18.3457" y1="48.2979" x2="18.3457" y2="49.8365" gradientUnits="userSpaceOnUse">
<stop stop-color="#C5B4E3"/>
<stop offset="1" stop-color="#E6D8FF"/>
</linearGradient>
<linearGradient id="paint24_linear_236_2" x1="16.168" y1="45.1852" x2="16.168" y2="46.7237" gradientUnits="userSpaceOnUse">
<stop stop-color="#C5B4E3"/>
<stop offset="1" stop-color="#E6D8FF"/>
</linearGradient>
<linearGradient id="paint25_linear_236_2" x1="14.5598" y1="41.7393" x2="14.5598" y2="43.2779" gradientUnits="userSpaceOnUse">
<stop stop-color="#C5B4E3"/>
<stop offset="1" stop-color="#E6D8FF"/>
</linearGradient>
<linearGradient id="paint26_linear_236_2" x1="13.5769" y1="38.0688" x2="13.5769" y2="39.6074" gradientUnits="userSpaceOnUse">
<stop stop-color="#C5B4E3"/>
<stop offset="1" stop-color="#E6D8FF"/>
</linearGradient>
<linearGradient id="paint27_linear_236_2" x1="13.2456" y1="34.2822" x2="13.2456" y2="35.8208" gradientUnits="userSpaceOnUse">
<stop stop-color="#C5B4E3"/>
<stop offset="1" stop-color="#E6D8FF"/>
</linearGradient>
<linearGradient id="paint28_linear_236_2" x1="13.5769" y1="30.4956" x2="13.5769" y2="32.0342" gradientUnits="userSpaceOnUse">
<stop stop-color="#C5B4E3"/>
<stop offset="1" stop-color="#E6D8FF"/>
</linearGradient>
<linearGradient id="paint29_linear_236_2" x1="14.5598" y1="26.8233" x2="14.5598" y2="28.3619" gradientUnits="userSpaceOnUse">
<stop stop-color="#C5B4E3"/>
<stop offset="1" stop-color="#E6D8FF"/>
</linearGradient>
<linearGradient id="paint30_linear_236_2" x1="16.168" y1="23.3793" x2="16.168" y2="24.9179" gradientUnits="userSpaceOnUse">
<stop stop-color="#C5B4E3"/>
<stop offset="1" stop-color="#E6D8FF"/>
</linearGradient>
<linearGradient id="paint31_linear_236_2" x1="18.3457" y1="20.2647" x2="18.3457" y2="21.8033" gradientUnits="userSpaceOnUse">
<stop stop-color="#C5B4E3"/>
<stop offset="1" stop-color="#E6D8FF"/>
</linearGradient>
<linearGradient id="paint32_linear_236_2" x1="21.0344" y1="17.5767" x2="21.0344" y2="19.1153" gradientUnits="userSpaceOnUse">
<stop stop-color="#C5B4E3"/>
<stop offset="1" stop-color="#E6D8FF"/>
</linearGradient>
<linearGradient id="paint33_linear_236_2" x1="24.1489" y1="15.3979" x2="24.1489" y2="16.9365" gradientUnits="userSpaceOnUse">
<stop stop-color="#C5B4E3"/>
<stop offset="1" stop-color="#E6D8FF"/>
</linearGradient>
<linearGradient id="paint34_linear_236_2" x1="27.5923" y1="13.7905" x2="27.5923" y2="15.329" gradientUnits="userSpaceOnUse">
<stop stop-color="#C5B4E3"/>
<stop offset="1" stop-color="#E6D8FF"/>
</linearGradient>
<linearGradient id="paint35_linear_236_2" x1="31.2649" y1="12.8076" x2="31.2649" y2="14.3462" gradientUnits="userSpaceOnUse">
<stop stop-color="#C5B4E3"/>
<stop offset="1" stop-color="#E6D8FF"/>
</linearGradient>
<linearGradient id="paint36_linear_236_2" x1="32.8591" y1="10.0063" x2="32.8591" y2="11.7171" gradientUnits="userSpaceOnUse">
<stop stop-color="#C5B4E3"/>
<stop offset="1" stop-color="#E6D8FF"/>
</linearGradient>
<linearGradient id="paint37_linear_236_2" x1="37.0841" y1="10" x2="37.0841" y2="11.7108" gradientUnits="userSpaceOnUse">
<stop stop-color="#C5B4E3"/>
<stop offset="1" stop-color="#E6D8FF"/>
</linearGradient>
<linearGradient id="paint38_linear_236_2" x1="41.2445" y1="10.7282" x2="41.2445" y2="12.439" gradientUnits="userSpaceOnUse">
<stop stop-color="#C5B4E3"/>
<stop offset="1" stop-color="#E6D8FF"/>
</linearGradient>
<linearGradient id="paint39_linear_236_2" x1="45.2143" y1="12.1694" x2="45.2143" y2="13.8801" gradientUnits="userSpaceOnUse">
<stop stop-color="#C5B4E3"/>
<stop offset="1" stop-color="#E6D8FF"/>
</linearGradient>
<linearGradient id="paint40_linear_236_2" x1="48.8761" y1="14.2769" x2="48.8761" y2="15.9877" gradientUnits="userSpaceOnUse">
<stop stop-color="#C5B4E3"/>
<stop offset="1" stop-color="#E6D8FF"/>
</linearGradient>
<linearGradient id="paint41_linear_236_2" x1="52.1166" y1="16.9873" x2="52.1166" y2="18.6981" gradientUnits="userSpaceOnUse">
<stop stop-color="#C5B4E3"/>
<stop offset="1" stop-color="#E6D8FF"/>
</linearGradient>
<linearGradient id="paint42_linear_236_2" x1="54.8334" y1="20.2215" x2="54.8334" y2="21.9322" gradientUnits="userSpaceOnUse">
<stop stop-color="#C5B4E3"/>
<stop offset="1" stop-color="#E6D8FF"/>
</linearGradient>
<linearGradient id="paint43_linear_236_2" x1="56.9508" y1="23.877" x2="56.9508" y2="25.5877" gradientUnits="userSpaceOnUse">
<stop stop-color="#C5B4E3"/>
<stop offset="1" stop-color="#E6D8FF"/>
</linearGradient>
<linearGradient id="paint44_linear_236_2" x1="58.3993" y1="27.8453" x2="58.3993" y2="29.5561" gradientUnits="userSpaceOnUse">
<stop stop-color="#C5B4E3"/>
<stop offset="1" stop-color="#E6D8FF"/>
</linearGradient>
<linearGradient id="paint45_linear_236_2" x1="59.1398" y1="32.0044" x2="59.1398" y2="33.7152" gradientUnits="userSpaceOnUse">
<stop stop-color="#C5B4E3"/>
<stop offset="1" stop-color="#E6D8FF"/>
</linearGradient>
<linearGradient id="paint46_linear_236_2" x1="59.1447" y1="36.2287" x2="59.1447" y2="37.9395" gradientUnits="userSpaceOnUse">
<stop stop-color="#C5B4E3"/>
<stop offset="1" stop-color="#E6D8FF"/>
</linearGradient>
<linearGradient id="paint47_linear_236_2" x1="58.4147" y1="40.3896" x2="58.4147" y2="42.1004" gradientUnits="userSpaceOnUse">
<stop stop-color="#C5B4E3"/>
<stop offset="1" stop-color="#E6D8FF"/>
</linearGradient>
<linearGradient id="paint48_linear_236_2" x1="56.9753" y1="44.3596" x2="56.9753" y2="46.0704" gradientUnits="userSpaceOnUse">
<stop stop-color="#C5B4E3"/>
<stop offset="1" stop-color="#E6D8FF"/>
</linearGradient>
<linearGradient id="paint49_linear_236_2" x1="54.8676" y1="48.0207" x2="54.8676" y2="49.7315" gradientUnits="userSpaceOnUse">
<stop stop-color="#C5B4E3"/>
<stop offset="1" stop-color="#E6D8FF"/>
</linearGradient>
<linearGradient id="paint50_linear_236_2" x1="52.1559" y1="51.2608" x2="52.1559" y2="52.9716" gradientUnits="userSpaceOnUse">
<stop stop-color="#C5B4E3"/>
<stop offset="1" stop-color="#E6D8FF"/>
</linearGradient>
<linearGradient id="paint51_linear_236_2" x1="48.9233" y1="53.9785" x2="48.9233" y2="55.6892" gradientUnits="userSpaceOnUse">
<stop stop-color="#C5B4E3"/>
<stop offset="1" stop-color="#E6D8FF"/>
</linearGradient>
<linearGradient id="paint52_linear_236_2" x1="45.2677" y1="56.0955" x2="45.2677" y2="57.8063" gradientUnits="userSpaceOnUse">
<stop stop-color="#C5B4E3"/>
<stop offset="1" stop-color="#E6D8FF"/>
</linearGradient>
<linearGradient id="paint53_linear_236_2" x1="41.299" y1="57.5443" x2="41.299" y2="59.2551" gradientUnits="userSpaceOnUse">
<stop stop-color="#C5B4E3"/>
<stop offset="1" stop-color="#E6D8FF"/>
</linearGradient>
<linearGradient id="paint54_linear_236_2" x1="37.141" y1="58.2837" x2="37.141" y2="59.9945" gradientUnits="userSpaceOnUse">
<stop stop-color="#C5B4E3"/>
<stop offset="1" stop-color="#E6D8FF"/>
</linearGradient>
<linearGradient id="paint55_linear_236_2" x1="32.9167" y1="58.2893" x2="32.9167" y2="60.0001" gradientUnits="userSpaceOnUse">
<stop stop-color="#C5B4E3"/>
<stop offset="1" stop-color="#E6D8FF"/>
</linearGradient>
<linearGradient id="paint56_linear_236_2" x1="28.755" y1="57.5593" x2="28.755" y2="59.2701" gradientUnits="userSpaceOnUse">
<stop stop-color="#C5B4E3"/>
<stop offset="1" stop-color="#E6D8FF"/>
</linearGradient>
<linearGradient id="paint57_linear_236_2" x1="24.7829" y1="56.1199" x2="24.7829" y2="57.8307" gradientUnits="userSpaceOnUse">
<stop stop-color="#C5B4E3"/>
<stop offset="1" stop-color="#E6D8FF"/>
</linearGradient>
<linearGradient id="paint58_linear_236_2" x1="21.1222" y1="54.0123" x2="21.1222" y2="55.723" gradientUnits="userSpaceOnUse">
<stop stop-color="#C5B4E3"/>
<stop offset="1" stop-color="#E6D8FF"/>
</linearGradient>
<linearGradient id="paint59_linear_236_2" x1="17.8835" y1="51.3002" x2="17.8835" y2="53.011" gradientUnits="userSpaceOnUse">
<stop stop-color="#C5B4E3"/>
<stop offset="1" stop-color="#E6D8FF"/>
</linearGradient>
<linearGradient id="paint60_linear_236_2" x1="15.1637" y1="48.0678" x2="15.1637" y2="49.7786" gradientUnits="userSpaceOnUse">
<stop stop-color="#C5B4E3"/>
<stop offset="1" stop-color="#E6D8FF"/>
</linearGradient>
<linearGradient id="paint61_linear_236_2" x1="13.0463" y1="44.412" x2="13.0463" y2="46.1228" gradientUnits="userSpaceOnUse">
<stop stop-color="#C5B4E3"/>
<stop offset="1" stop-color="#E6D8FF"/>
</linearGradient>
<linearGradient id="paint62_linear_236_2" x1="11.5983" y1="40.4439" x2="11.5983" y2="42.1547" gradientUnits="userSpaceOnUse">
<stop stop-color="#C5B4E3"/>
<stop offset="1" stop-color="#E6D8FF"/>
</linearGradient>
<linearGradient id="paint63_linear_236_2" x1="10.8617" y1="36.2849" x2="10.8617" y2="37.9957" gradientUnits="userSpaceOnUse">
<stop stop-color="#C5B4E3"/>
<stop offset="1" stop-color="#E6D8FF"/>
</linearGradient>
<linearGradient id="paint64_linear_236_2" x1="10.8554" y1="32.0605" x2="10.8554" y2="33.7713" gradientUnits="userSpaceOnUse">
<stop stop-color="#C5B4E3"/>
<stop offset="1" stop-color="#E6D8FF"/>
</linearGradient>
<linearGradient id="paint65_linear_236_2" x1="11.5829" y1="27.8994" x2="11.5829" y2="29.6101" gradientUnits="userSpaceOnUse">
<stop stop-color="#C5B4E3"/>
<stop offset="1" stop-color="#E6D8FF"/>
</linearGradient>
<linearGradient id="paint66_linear_236_2" x1="13.0248" y1="23.9275" x2="13.0248" y2="25.6383" gradientUnits="userSpaceOnUse">
<stop stop-color="#C5B4E3"/>
<stop offset="1" stop-color="#E6D8FF"/>
</linearGradient>
<linearGradient id="paint67_linear_236_2" x1="15.1335" y1="20.2665" x2="15.1335" y2="21.9773" gradientUnits="userSpaceOnUse">
<stop stop-color="#C5B4E3"/>
<stop offset="1" stop-color="#E6D8FF"/>
</linearGradient>
<linearGradient id="paint68_linear_236_2" x1="17.8434" y1="17.0284" x2="17.8434" y2="18.7392" gradientUnits="userSpaceOnUse">
<stop stop-color="#C5B4E3"/>
<stop offset="1" stop-color="#E6D8FF"/>
</linearGradient>
<linearGradient id="paint69_linear_236_2" x1="21.0776" y1="14.3087" x2="21.0776" y2="16.0195" gradientUnits="userSpaceOnUse">
<stop stop-color="#C5B4E3"/>
<stop offset="1" stop-color="#E6D8FF"/>
</linearGradient>
<linearGradient id="paint70_linear_236_2" x1="24.7323" y1="12.192" x2="24.7323" y2="13.9028" gradientUnits="userSpaceOnUse">
<stop stop-color="#C5B4E3"/>
<stop offset="1" stop-color="#E6D8FF"/>
</linearGradient>
<linearGradient id="paint71_linear_236_2" x1="28.7004" y1="10.7432" x2="28.7004" y2="12.454" gradientUnits="userSpaceOnUse">
<stop stop-color="#C5B4E3"/>
<stop offset="1" stop-color="#E6D8FF"/>
</linearGradient>
<radialGradient id="paint72_radial_236_2" cx="0" cy="0" r="1" gradientUnits="userSpaceOnUse" gradientTransform="translate(44.2858 28.5714) rotate(145.713) scale(19.0193 19.0201)">
<stop stop-color="#E6D8FF"/>
<stop offset="1" stop-color="#B498E8"/>
</radialGradient>
</defs>
</svg>
