<svg width="40" height="40" viewBox="0 0 40 40" fill="none" xmlns="http://www.w3.org/2000/svg">
<path d="M9.74749 2.81806C9.79416 2.49219 9.84084 2.25633 9.86133 2.02048C9.94557 0.982483 9.30465 0.160975 8.31195 0.0196887C7.31926 -0.121597 6.46089 0.509632 6.27419 1.5237C5.94405 3.31028 5.6234 5.09914 5.31224 6.89028C5.15855 7.77332 5.60936 8.59939 6.45065 8.89905C8.05581 9.46077 9.66893 10.0065 11.2923 10.5147C12.2793 10.8235 13.2481 10.2641 13.5441 9.29328C13.831 8.35214 13.3323 7.39276 12.3636 7.04638C11.8581 6.86522 11.3458 6.70456 10.7766 6.51086C11.7909 5.80083 12.8891 5.21911 14.0461 4.77897C20.3711 2.35091 27.3018 3.90163 31.9534 8.83638C34.558 11.5983 36.0175 14.9026 36.2873 18.6968C36.6618 23.9528 34.9212 28.425 31.0859 32.0278C28.3435 34.6051 25.0523 36.0282 21.2955 36.3039C13.0216 36.9112 5.82794 31.5652 4.02014 23.4697C3.35417 20.489 3.55453 17.5448 4.52901 14.6485C4.64968 14.2896 4.77149 13.9079 4.77377 13.5364C4.76817 13.1198 4.61568 12.7186 4.34323 12.4036C4.07077 12.0886 3.69587 11.88 3.28472 11.8148C2.86019 11.7393 2.4227 11.8181 2.051 12.0368C1.67931 12.2555 1.39782 12.5998 1.25722 13.0077C0.712931 14.4427 0.343688 15.9381 0.157505 17.4617C-0.432192 22.475 0.624257 27.1169 3.49078 31.2701C6.94927 36.2834 11.75 39.2003 17.8063 39.8737C27.8243 40.988 36.9806 34.6267 39.3974 24.8336C42.1626 13.6298 35.1193 2.77818 24.2406 0.472031C19.2794 -0.579637 14.5641 0.165532 10.1243 2.62322C10.0207 2.67791 9.92166 2.72691 9.74749 2.81806Z" fill="#B498E8"/>
<path d="M28.5713 20.0027C28.5378 21.7246 28.1249 23.3321 26.99 24.6768C25.1633 26.8423 22.2514 26.7995 20.4659 24.5947C19.6023 23.5268 19.149 22.2817 19.0168 20.9221C18.828 19.0011 19.1473 17.1796 20.3174 15.6009C21.2505 14.3409 22.4772 13.6293 24.073 13.7437C25.3367 13.831 26.3204 14.4736 27.0973 15.4551C28.1472 16.7754 28.5378 18.3235 28.5713 20.0027ZM25.8165 20.007C25.808 18.9705 25.6071 17.9847 24.9177 17.184C24.6824 16.9054 24.3793 16.6947 24.0387 16.5728C23.3786 16.3615 22.9073 16.771 22.5356 17.2635C21.8565 18.1611 21.6634 19.2098 21.7218 20.3196C21.7707 21.2277 21.9999 22.0835 22.5802 22.7986C23.3399 23.7285 24.2361 23.7137 24.9718 22.7645C25.1163 22.5755 25.2422 22.3725 25.3478 22.1585C25.6724 21.4903 25.8332 20.7522 25.8165 20.007Z" fill="#B498E8"/>
<path d="M14.8578 17.5826L13.5452 18.379C13.3691 18.4951 13.1688 18.568 12.9603 18.592C12.7517 18.6159 12.5405 18.5902 12.3434 18.517C12.1068 18.4403 11.8969 18.2961 11.7386 18.1015C11.5803 17.9069 11.4803 17.6701 11.4506 17.4194C11.3648 16.8771 11.5279 16.3925 11.9777 16.1096C13.1795 15.3394 14.3933 14.5789 15.6372 13.8803C16.524 13.3818 17.5704 14.0698 17.5825 15.1203C17.6005 16.7426 17.5885 18.3641 17.5885 19.9865C17.5885 21.6089 17.5885 23.2522 17.5885 24.8851C17.5992 25.1548 17.5277 25.4212 17.3839 25.648C17.2401 25.8748 17.0309 26.0508 16.785 26.1521C16.2845 26.3835 15.7986 26.311 15.3668 25.9661C14.996 25.6692 14.8517 25.2676 14.8569 24.7882C14.8638 22.9807 14.8569 21.1741 14.8569 19.3666L14.8578 17.5826Z" fill="#B498E8"/>
</svg>
